<svg xmlns="http://www.w3.org/2000/svg" viewBox="0 0 512 512" width="1024" height="1024"><path d="M120.32 0H391.68C469.88800000000003 0 512 42.111999999999995 512 120.32V391.68C512 469.88800000000003 469.88800000000003 512 391.68 512H120.32C42.111999999999995 512 0 469.88800000000003 0 391.68V120.32C0 42.111999999999995 42.111999999999995 0 120.32 0Z" fill="#FFFFFF"/><path d="M138 112H374Q394 112 394 132V286C394 330 420 352 448 368V392Q448 408 432 408H80Q64 408 64 392V368C92 352 118 330 118 286V132Q118 112 138 112Z" fill="#F4F6FA"/><path d="M118 300C118 336 92 354 64 368V392Q64 408 80 408H432Q448 408 448 392V368C420 354 394 336 394 300Z" fill="#E9ECF2"/><ellipse cx="256" cy="355" rx="88" ry="10" fill="#D3D8E2"/><g transform="translate(256 352) scale(1.14) translate(-256 -352)"><path d="M200 214H312L322 340Q323 352 311 352H201Q189 352 190 340Z" fill="#121826"/>
  <path d="M226 228V204A30 30 0 0 1 286 204V228" fill="none" stroke="#121826" stroke-width="15" stroke-linecap="round"/>
  <circle cx="226" cy="236" r="9" fill="#FFFFFF"/><circle cx="286" cy="236" r="9" fill="#FFFFFF"/></g></svg>