<svg xmlns="http://www.w3.org/2000/svg" width="1024" height="1024" viewBox="0 0 1024 1024">
  
  <path d="M526.59 326.57 A186.0 186.0 0 0 1 592.08 344.12" fill="none" stroke="#000" stroke-opacity="1" stroke-width="28.5" stroke-linecap="round"/>
  <path d="M617.35 358.71 A186.0 186.0 0 0 1 665.29 406.65" fill="none" stroke="#000" stroke-opacity="1" stroke-width="28.5" stroke-linecap="round"/>
  <path d="M679.88 431.92 A186.0 186.0 0 0 1 697.43 497.41" fill="none" stroke="#000" stroke-opacity="1" stroke-width="28.5" stroke-linecap="round"/>
  <path d="M697.43 526.59 A186.0 186.0 0 0 1 679.88 592.08" fill="none" stroke="#000" stroke-opacity="1" stroke-width="28.5" stroke-linecap="round"/>
  <path d="M665.29 617.35 A186.0 186.0 0 0 1 617.35 665.29" fill="none" stroke="#000" stroke-opacity="1" stroke-width="28.5" stroke-linecap="round"/>
  <path d="M592.08 679.88 A186.0 186.0 0 0 1 526.59 697.43" fill="none" stroke="#000" stroke-opacity="1" stroke-width="28.5" stroke-linecap="round"/>
  <path d="M497.41 697.43 A186.0 186.0 0 0 1 431.92 679.88" fill="none" stroke="#000" stroke-opacity="1" stroke-width="28.5" stroke-linecap="round"/>
  <path d="M406.65 665.29 A186.0 186.0 0 0 1 358.71 617.35" fill="none" stroke="#000" stroke-opacity="1" stroke-width="28.5" stroke-linecap="round"/>
  <path d="M344.12 592.08 A186.0 186.0 0 0 1 326.57 526.59" fill="none" stroke="#000" stroke-opacity="1" stroke-width="28.5" stroke-linecap="round"/>
  <path d="M326.57 497.41 A186.0 186.0 0 0 1 344.12 431.92" fill="none" stroke="#000" stroke-opacity="0.35" stroke-width="28.5" stroke-linecap="round"/>
  <path d="M358.71 406.65 A186.0 186.0 0 0 1 406.65 358.71" fill="none" stroke="#000" stroke-opacity="0.35" stroke-width="28.5" stroke-linecap="round"/>
  <path d="M431.92 344.12 A186.0 186.0 0 0 1 497.41 326.57" fill="none" stroke="#000" stroke-opacity="0.35" stroke-width="28.5" stroke-linecap="round"/>
  <circle cx="326.57" cy="526.59" r="24.8" fill="#000"/>
  <path d="M438.8 517.0 L492.2 569.0 L593.8 455.0" fill="none" stroke="#000" stroke-width="43.4" stroke-linecap="round" stroke-linejoin="round"/>
</svg>
